<?xml version="1.0" standalone="no"?>
<!DOCTYPE svg PUBLIC "-//W3C//DTD SVG 20010904//EN"
 "http://www.w3.org/TR/2001/REC-SVG-20010904/DTD/svg10.dtd">
<svg version="1.0" xmlns="http://www.w3.org/2000/svg"
 width="530.000000pt" height="384.000000pt" viewBox="0 0 530.000000 384.000000"
 preserveAspectRatio="xMidYMid meet">

<g transform="translate(0.000000,384.000000) scale(0.100000,-0.100000)"
fill="#000000" stroke="none">
<path d="M3410 2837 c0 -10 -11 -22 -25 -27 -14 -5 -31 -24 -39 -42 -12 -29
-12 -35 3 -47 14 -12 14 -13 0 -8 -11 4 -21 -6 -33 -34 -10 -21 -24 -39 -32
-39 -8 0 -14 -9 -14 -20 0 -13 5 -18 15 -14 8 4 15 10 15 14 0 4 12 11 26 14
14 4 43 18 65 32 41 25 44 35 40 119 -3 42 -20 87 -21 52z"/>
<path d="M2785 2800 c-3 -6 1 -7 9 -4 18 7 21 14 7 14 -6 0 -13 -4 -16 -10z"/>
<path d="M2666 2735 c-11 -8 -15 -15 -9 -15 6 0 16 7 23 15 16 19 11 19 -14 0z"/>
<path d="M2705 2740 c-3 -5 -1 -10 4 -10 6 0 11 5 11 10 0 6 -2 10 -4 10 -3 0
-8 -4 -11 -10z"/>
<path d="M2616 2695 c4 -10 0 -13 -13 -10 -11 2 -26 -1 -34 -5 -11 -8 -10 -12
6 -24 17 -13 17 -15 4 -16 -9 0 -20 7 -23 16 -3 8 -10 12 -16 9 -6 -4 -7 -11
-4 -17 4 -7 2 -8 -4 -4 -6 3 -199 -101 -429 -233 l-418 -239 -3 -571 c-1 -314
0 -571 2 -571 3 0 58 31 123 69 l118 69 3 266 c1 175 -1 266 -8 266 -13 0 -14
232 -1 246 6 5 11 38 13 73 l3 64 95 55 c52 30 136 79 185 107 123 72 166 97
264 152 46 26 94 58 107 69 12 12 25 20 28 17 2 -3 18 3 34 12 26 16 28 20 18
41 -6 13 -14 24 -18 24 -5 0 -8 18 -8 40 0 22 -4 40 -10 40 -6 0 -6 9 0 26 13
32 13 31 -4 37 -10 4 -13 1 -10 -8z m-92 -64 c3 -5 -1 -11 -9 -14 -9 -4 -12
-1 -8 9 6 16 10 17 17 5z"/>
<path d="M3128 2685 c-3 -11 -6 -37 -7 -57 -1 -30 2 -36 14 -32 16 6 17 28 6
79 -6 25 -8 27 -13 10z"/>
<path d="M2884 2648 c0 -10 1 -18 1 -18 0 0 8 9 17 19 16 18 15 20 -1 18 -9 0
-17 -9 -17 -19z"/>
<path d="M2645 2650 c3 -5 8 -10 11 -10 2 0 4 5 4 10 0 6 -5 10 -11 10 -5 0
-7 -4 -4 -10z"/>
<path d="M2751 2590 c-10 -7 -22 -40 -14 -40 5 0 73 40 73 43 0 4 -53 1 -59
-3z"/>
<path d="M3210 2580 c-6 -11 -9 -20 -8 -20 2 0 11 9 21 20 9 11 13 20 7 20 -5
0 -14 -9 -20 -20z"/>
<path d="M2683 2553 c-10 -3 -10 -7 0 -17 14 -16 37 -10 37 10 0 14 -14 17
-37 7z"/>
<path d="M2960 2531 c0 -6 -6 -10 -12 -8 -8 1 -13 -8 -12 -20 0 -13 -3 -23 -7
-23 -4 0 -1 -13 7 -30 9 -16 20 -30 25 -30 13 0 39 25 39 38 0 5 9 19 20 32
11 13 20 28 19 34 0 6 -7 1 -16 -11 -16 -24 -33 -30 -33 -12 0 6 -7 17 -15 25
-8 9 -15 11 -15 5z"/>
<path d="M3211 2331 c-17 -17 -21 -33 -21 -91 0 -54 -4 -72 -15 -76 -18 -7
-20 -25 -2 -21 9 1 11 -20 9 -88 -2 -49 1 -101 7 -115 8 -21 10 -17 11 30 0
39 3 51 10 40 5 -8 10 -28 10 -44 0 -16 3 -26 6 -23 4 4 8 72 9 151 2 80 6
163 10 185 4 22 2 48 -3 57 -8 15 -11 15 -31 -5z m18 -28 c0 -5 -4 -17 -9 -28
-8 -18 -9 -17 -9 8 -1 15 4 27 9 27 6 0 10 -3 9 -7z"/>
<path d="M2732 2088 c-14 -14 -16 -44 -3 -53 11 -6 31 26 31 49 0 19 -11 21
-28 4z"/>
<path d="M2180 1950 c0 -11 2 -20 4 -20 2 0 6 9 9 20 3 11 1 20 -4 20 -5 0 -9
-9 -9 -20z"/>
<path d="M2124 1924 c-12 -17 -20 -22 -27 -15 -27 27 -57 6 -57 -40 0 -24 13
-24 36 -1 10 9 20 17 23 17 16 1 39 23 45 43 10 29 0 28 -20 -4z m-51 -39 c-3
-8 -9 -15 -14 -15 -10 0 -12 24 -3 33 11 11 24 -3 17 -18z"/>
<path d="M2723 1937 c-4 -8 -15 -17 -23 -20 -13 -5 -12 -6 1 -6 18 -1 45 26
36 35 -3 3 -9 -1 -14 -9z"/>
<path d="M1924 1825 c0 -60 1 -84 3 -52 2 32 2 81 0 110 -2 29 -3 3 -3 -58z"/>
<path d="M3217 1910 c-3 -11 -1 -20 4 -20 5 0 9 2 9 4 0 2 3 11 6 20 3 9 2 16
-4 16 -5 0 -12 -9 -15 -20z"/>
<path d="M3181 1892 c-7 -13 -11 -26 -8 -28 8 -8 29 25 25 38 -3 8 -9 4 -17
-10z"/>
<path d="M2697 1843 c-2 -5 -4 -66 -5 -136 l-2 -129 30 22 c36 26 46 40 27 40
-22 0 -28 41 -17 100 16 83 13 110 -9 110 -11 0 -22 -3 -24 -7z"/>
<path d="M2154 1815 c-3 -8 -4 -20 -1 -27 3 -7 6 -4 6 7 1 17 3 17 11 5 8 -12
10 -11 10 8 0 25 -18 30 -26 7z"/>
<path d="M2113 1785 c-3 -9 -3 -18 0 -21 9 -9 27 6 27 22 0 19 -19 18 -27 -1z"/>
<path d="M2060 1744 c0 -14 4 -23 9 -19 11 6 10 45 -1 45 -4 0 -8 -12 -8 -26z"/>
<path d="M2042 1730 c0 -14 2 -19 5 -12 2 6 2 18 0 25 -3 6 -5 1 -5 -13z"/>
</g>
</svg>
